<?xml version="1.0" encoding="UTF-8" standalone="no"?>
<!-- Created with Inkscape (http://www.inkscape.org/) -->

<svg
   xmlns:dc="http://purl.org/dc/elements/1.1/"
   xmlns:cc="http://creativecommons.org/ns#"
   xmlns:rdf="http://www.w3.org/1999/02/22-rdf-syntax-ns#"
   xmlns:svg="http://www.w3.org/2000/svg"
   xmlns="http://www.w3.org/2000/svg"
   xmlns:xlink="http://www.w3.org/1999/xlink"
   xmlns:sodipodi="http://sodipodi.sourceforge.net/DTD/sodipodi-0.dtd"
   xmlns:inkscape="http://www.inkscape.org/namespaces/inkscape"
   version="1.0"
   width="48"
   height="48"
   id="svg2"
   inkscape:version="0.48.3.1 r9886"
   sodipodi:docname="clipit-trayicon.svg">
  <metadata
     id="metadata3272">
    <rdf:RDF>
      <cc:Work
         rdf:about="">
        <dc:format>image/svg+xml</dc:format>
        <dc:type
           rdf:resource="http://purl.org/dc/dcmitype/StillImage" />
        <dc:title></dc:title>
      </cc:Work>
    </rdf:RDF>
  </metadata>
  <sodipodi:namedview
     pagecolor="#ffffff"
     bordercolor="#666666"
     borderopacity="1"
     objecttolerance="10"
     gridtolerance="10"
     guidetolerance="10"
     inkscape:pageopacity="0"
     inkscape:pageshadow="2"
     inkscape:window-width="640"
     inkscape:window-height="480"
     id="namedview3270"
     showgrid="false"
     inkscape:zoom="4.9166667"
     inkscape:cx="24"
     inkscape:cy="24"
     inkscape:window-x="0"
     inkscape:window-y="24"
     inkscape:window-maximized="0"
     inkscape:current-layer="svg2" />
  <defs
     id="defs4">
    <linearGradient
       id="linearGradient3620">
      <stop
         id="stop3622"
         style="stop-color:#787878;stop-opacity:1;"
         offset="0" />
      <stop
         id="stop3624"
         style="stop-color:#828282;stop-opacity:1;"
         offset="1" />
    </linearGradient>
    <linearGradient
       id="linearGradient3846">
      <stop
         id="stop3848"
         style="stop-color:#a1a1a1;stop-opacity:1;"
         offset="0" />
      <stop
         id="stop3850"
         style="stop-color:#737373;stop-opacity:1;"
         offset="1" />
    </linearGradient>
    <linearGradient
       x1="24.467497"
       y1="0.47814167"
       x2="25.464664"
       y2="70.020134"
       id="linearGradient4545"
       xlink:href="#linearGradient3846"
       gradientUnits="userSpaceOnUse"
       gradientTransform="matrix(0.54289087,0,0,0.48890703,-0.0291956,-18.233335)" />
    <linearGradient
       id="linearGradient3600">
      <stop
         id="stop3602"
         style="stop-color:#f4f4f4;stop-opacity:1"
         offset="0" />
      <stop
         id="stop3604"
         style="stop-color:#dbdbdb;stop-opacity:1"
         offset="1" />
    </linearGradient>
    <linearGradient
       id="linearGradient3931">
      <stop
         id="stop3933"
         style="stop-color:#747671;stop-opacity:1"
         offset="0" />
      <stop
         id="stop3935"
         style="stop-color:#cbcbcb;stop-opacity:1"
         offset="1" />
    </linearGradient>
    <linearGradient
       x1="25.132275"
       y1="6.7287393"
       x2="25.132275"
       y2="47.013336"
       id="linearGradient3192"
       xlink:href="#linearGradient3600"
       gradientUnits="userSpaceOnUse"
       gradientTransform="matrix(0.5428805,0,0,0.4889072,18.970867,-6.233341)" />
    <linearGradient
       x1="-64.247643"
       y1="14.969027"
       x2="-22.573992"
       y2="-19.797691"
       id="linearGradient3194"
       xlink:href="#linearGradient3931"
       gradientUnits="userSpaceOnUse"
       gradientTransform="matrix(0.4383743,0,0,0.4575444,51.223522,-6.778219)" />
    <linearGradient
       id="linearGradient3269">
      <stop
         id="stop3271"
         style="stop-color:#787878;stop-opacity:1"
         offset="0" />
      <stop
         id="stop3273"
         style="stop-color:#bebebe;stop-opacity:1"
         offset="0.34446934" />
      <stop
         id="stop3275"
         style="stop-color:#c8c8c8;stop-opacity:1"
         offset="0.3731544" />
      <stop
         id="stop3277"
         style="stop-color:#e6e6e6;stop-opacity:1"
         offset="0.48990577" />
      <stop
         id="stop3279"
         style="stop-color:#8c8c8c;stop-opacity:1"
         offset="1" />
    </linearGradient>
    <linearGradient
       id="linearGradient3257">
      <stop
         id="stop3261"
         style="stop-color:#787878;stop-opacity:1"
         offset="0" />
      <stop
         id="stop3263"
         style="stop-color:#828282;stop-opacity:1"
         offset="0.36563665" />
      <stop
         id="stop3265"
         style="stop-color:#aaaaaa;stop-opacity:1"
         offset="0.46209824" />
      <stop
         id="stop3922"
         style="stop-color:#6a6a6a;stop-opacity:1"
         offset="0.59657371" />
      <stop
         id="stop3920"
         style="stop-color:#787878;stop-opacity:1"
         offset="0.73104912" />
      <stop
         id="stop3267"
         style="stop-color:#464646;stop-opacity:1"
         offset="1" />
    </linearGradient>
    <linearGradient
       x1="321.40091"
       y1="83.497276"
       x2="321.57819"
       y2="96.245491"
       id="linearGradient2964"
       xlink:href="#linearGradient3269"
       gradientUnits="userSpaceOnUse"
       gradientTransform="matrix(0.41034562,0,0,0.51289447,-114.89528,-62.82218)" />
    <linearGradient
       x1="22.451862"
       y1="26.645382"
       x2="22.451862"
       y2="40.185558"
       id="linearGradient2966"
       xlink:href="#linearGradient3257"
       gradientUnits="userSpaceOnUse"
       gradientTransform="matrix(0.41182453,0,0,0.51282072,6.5443502,-34.097634)" />
    <linearGradient
       x1="9.3157892"
       y1="16"
       x2="9.7894735"
       y2="-17.999569"
       id="linearGradient3626"
       xlink:href="#linearGradient3620"
       gradientUnits="userSpaceOnUse" />
    <linearGradient
       inkscape:collect="always"
       xlink:href="#linearGradient3269"
       id="linearGradient3502"
       gradientUnits="userSpaceOnUse"
       gradientTransform="matrix(0.41034562,0,0,0.51289447,-114.89528,-38.82218)"
       x1="321.40091"
       y1="83.497276"
       x2="321.57819"
       y2="96.245491" />
    <linearGradient
       inkscape:collect="always"
       xlink:href="#linearGradient3257"
       id="linearGradient3504"
       gradientUnits="userSpaceOnUse"
       gradientTransform="matrix(0.41182453,0,0,0.51282072,6.5443502,-10.097634)"
       x1="22.451862"
       y1="26.645382"
       x2="22.451862"
       y2="40.185558" />
    <linearGradient
       inkscape:collect="always"
       xlink:href="#linearGradient3600"
       id="linearGradient3508"
       gradientUnits="userSpaceOnUse"
       gradientTransform="matrix(0.5428805,0,0,0.4889072,18.970867,17.766659)"
       x1="25.132275"
       y1="6.7287393"
       x2="25.132275"
       y2="47.013336" />
    <linearGradient
       inkscape:collect="always"
       xlink:href="#linearGradient3931"
       id="linearGradient3510"
       gradientUnits="userSpaceOnUse"
       gradientTransform="matrix(0.4383743,0,0,0.4575444,51.223522,17.221781)"
       x1="-64.247643"
       y1="14.969027"
       x2="-22.573992"
       y2="-19.797691" />
    <linearGradient
       inkscape:collect="always"
       xlink:href="#linearGradient3846"
       id="linearGradient3514"
       gradientUnits="userSpaceOnUse"
       gradientTransform="matrix(0.54289087,0,0,0.48890703,-0.0291956,5.766665)"
       x1="24.467497"
       y1="0.47814167"
       x2="25.464664"
       y2="70.020134" />
    <linearGradient
       inkscape:collect="always"
       xlink:href="#linearGradient3620"
       id="linearGradient3516"
       gradientUnits="userSpaceOnUse"
       x1="9.3157892"
       y1="16"
       x2="9.7894735"
       y2="-17.999569"
       gradientTransform="translate(0,24)" />
  </defs>
  <path
     inkscape:connector-curvature="0"
     style="fill:url(#linearGradient3514);fill-opacity:1;stroke:url(#linearGradient3516);stroke-width:0.99914837;stroke-linecap:butt;stroke-linejoin:round;stroke-miterlimit:4;stroke-opacity:1;stroke-dasharray:none;stroke-dashoffset:0;display:inline"
     id="rect2594"
     d="m 3.4995742,6.500006 26.0008518,4.3e-4 0,32.99999 -26.0008518,0 0,-33.00042 z" />
  <path
     inkscape:connector-curvature="0"
     style="opacity:0.15;fill:none;stroke:#ffffff;stroke-width:0.99914837;stroke-linecap:butt;stroke-linejoin:round;stroke-miterlimit:4;stroke-opacity:1;stroke-dasharray:none;stroke-dashoffset:0;display:inline"
     id="path3852"
     d="m 4.5,7.5 24,0 0,31 -24,0 0,-31 z" />
  <path
     inkscape:connector-curvature="0"
     style="fill:url(#linearGradient3508);fill-opacity:1;stroke:url(#linearGradient3510);stroke-width:0.99913895;stroke-linecap:butt;stroke-linejoin:round;stroke-miterlimit:4;stroke-opacity:1;stroke-dasharray:none;stroke-dashoffset:0;display:inline"
     id="path3064"
     d="m 22.49957,18.5 22.00043,4.3e-4 0,27.000001 -22.00043,0 0,-27.000431 z" />
  <path
     inkscape:connector-curvature="0"
     style="opacity:0.7;fill:#666666;fill-opacity:1;stroke:none;display:inline"
     id="path2950"
     d="m 25,22.00043 1.359538,0 0,1 -1.359538,0 0,-1 z m 1.544729,0 1.282784,0 0,1 -1.282784,0 0,-1 z m 1.467975,0 1.129269,0 0,1 -1.129269,0 0,-1 z m 1.314458,0 0.496023,0 0,1 -0.496023,0 0,-1 z m 0.68122,0 1.110075,0 0,1 -1.110075,0 0,-1 z m 1.295272,0 2.875482,0 0,1 -2.875482,0 0,-1 z m 3.060674,0 2.184672,0 0,1 -2.184672,0 0,-1 z m -9.364328,6 1.315079,0 0,1 -1.315079,0 0,-1 z m 1.494213,0 1.240835,0 0,1 -1.240835,0 0,-1 z m 1.419971,0 1.092338,0 0,1 -1.092338,0 0,-1 z m 1.271472,0 0.479802,0 0,1 -0.479802,0 0,-1 z m 0.658943,0 1.073773,0 0,1 -1.073773,0 0,-1 z m 1.252914,0 2.781449,0 0,1 -2.781449,0 0,-1 z m 2.960584,0 2.113229,0 0,1 -2.113229,0 0,-1 z m 2.29237,0 0.646852,0 0,1 -0.646852,0 0,-1 z m 0.825993,0 1.277954,0 0,1 -1.277954,0 0,-1 z M 25,24.000431 l 2.038983,0 0,1 -2.038983,0 0,-1 z m 2.225084,0 0.980966,0 0,1 -0.980966,0 0,-1 z m 1.167067,0 0.461237,0 0,1 -0.461237,0 0,-1 z m 0.647339,0 0.888159,0 0,1 -0.888159,0 0,-1 z m 1.074254,0 0.888158,0 0,1 -0.888158,0 0,-1 z m 1.074258,0 1.426446,0 0,1 -1.426446,0 0,-1 z m 1.612542,0 1.871931,0 0,1 -1.871931,0 0,-1 z m 2.058032,0 1.25939,0 0,1 -1.25939,0 0,-1 z m 1.445492,0 0.294181,0 0,1 -0.294181,0 0,-1 z M 25,26.00043 l 2.33597,0 0,1 -2.33597,0 0,-1 z m 2.519087,0 2.503019,0 0,1 -2.503019,0 0,-1 z m 2.686137,0 0.99953,0 0,1 -0.99953,0 0,-1 z m 1.182648,0 2.354528,0 0,1 -2.354528,0 0,-1 z m 4.332824,0 0.628292,0 0,1 -0.628292,0 0,-1 z m -1.795178,0 1.61206,0 0,1 -1.61206,0 0,-1 z m 2.606587,0 0.36843,0 0,1 -0.36843,0 0,-1 z m 0.551548,0 0.99953,0 0,1 -0.99953,0 0,-1 z M 25,37.000431 l 2.335971,0 0,1 -2.335971,0 0,-1 z m 2.519087,0 2.503021,0 0,1 -2.503021,0 0,-1 z m 2.686139,0 0.99953,0 0,1 -0.99953,0 0,-1 z m 1.182648,0 2.354529,0 0,1 -2.354529,0 0,-1 z m 4.332825,0 0.628293,0 0,1 -0.628293,0 0,-1 z m -1.795178,0 1.612061,0 0,1 -1.612061,0 0,-1 z m 2.606588,0 0.368431,0 0,1 -0.368431,0 0,-1 z m 0.551548,0 0.999531,0 0,1 -0.999531,0 0,-1 z M 25,32.00043 l 1.68631,0 0,1 -1.68631,0 0,-1 z m 1.865451,0 2.800009,0 0,1 -2.800009,0 0,-1 z m 2.979151,0 1.352197,0 0,1 -1.352197,0 0,-1 z m 2.969866,0 1.073775,0 0,1 -1.073775,0 0,-1 z m 1.252915,0 1.723435,0 0,1 -1.723435,0 0,-1 z m 1.902569,0 2.800015,0 0,1 -2.800015,0 0,-1 z m -4.594014,0 1.259396,0 0,1 -1.259396,0 0,-1 z M 25,35.000431 l 2.11323,0 0,1 -2.11323,0 0,-1 z m 2.287728,0 0.665418,0 0,1 -0.665418,0 0,-1 z m 0.839914,0 1.519259,0 0,1 -1.519259,0 0,-1 z m 1.693755,0 1.036655,0 0,1 -1.036655,0 0,-1 z m 1.211152,0 1.036649,0 0,1 -1.036649,0 0,-1 z m 1.211151,0 1.500695,0 0,1 -1.500695,0 0,-1 z m 1.675185,0 0.312751,0 0,1 -0.312751,0 0,-1 z m 0.487248,0 1.946174,0 0,1 -1.946174,0 0,-1 z m 2.120671,0 1.036654,0 0,1 -1.036654,0 0,-1 z m -11.526804,4 0.851034,0 0,1 -0.851034,0 0,-1 z m 1.071276,0 3.096997,0 0,1 -3.096997,0 0,-1 z m 7.458746,0 -0.851034,0 0,1 0.851034,0 0,-1 z m -1.071276,0 -3.096997,0 0,1 3.096997,0 0,-1 z" />
  <path
     inkscape:connector-curvature="0"
     style="fill:url(#linearGradient3502);fill-opacity:1;stroke:url(#linearGradient3504);stroke-width:0.99827468;stroke-linecap:round;stroke-linejoin:round;stroke-miterlimit:4;stroke-opacity:1;stroke-dasharray:none;stroke-dashoffset:0.50000001;display:inline;enable-background:new"
     id="path4675"
     d="m 14.500502,2.492 c 0.046,1.844225 -0.184182,5.989238 -1.815947,6.055813 C 12.445408,9.061311 12.320854,10.29492 12.902776,10.5 l 7.437468,0 c 0.47136,-0.186897 0.01956,-1.708469 0,-1.879447 C 18.508476,8.446658 18.553138,4.296391 18.553138,2.492 l -4.052636,0 z" />
  <path
     inkscape:connector-curvature="0"
     style="fill:none;stroke:#ffffff;stroke-width:0.67095703;stroke-linecap:square;stroke-linejoin:round;stroke-miterlimit:4;stroke-opacity:1;stroke-dasharray:none"
     id="path3897"
     d="m 16.664521,4.5000004 a 0.16452148,0.16452148 0 1 1 -0.329042,0 0.16452148,0.16452148 0 1 1 0.329042,0 z" />
</svg>
